<?xml version="1.0" encoding="utf-8"?>
<!-- Generator: Adobe Illustrator 16.0.4, SVG Export Plug-In . SVG Version: 6.00 Build 0)  -->
<!DOCTYPE svg PUBLIC "-//W3C//DTD SVG 1.1//EN" "http://www.w3.org/Graphics/SVG/1.1/DTD/svg11.dtd">
<svg version="1.1" id="Layer_1" xmlns="http://www.w3.org/2000/svg" xmlns:xlink="http://www.w3.org/1999/xlink" x="0px" y="0px"
	 width="900px" height="216.88px" viewBox="0 341.561 900 216.88" enable-background="new 0 341.561 900 216.88"
	 xml:space="preserve">
<g>
	<path fill="#DEF6F9" d="M452.85,558.438V434.656c-115.868-13.572-194.156-30.597-313.144-30.597
		c-51.894,0-97.244,6.202-139.7,15.859v138.513h452.85"/>
	<path fill="#DDE7E8" d="M900,558.438V341.562c-231.537-0.567-228.256,120.656-450,120.656c-61.612,0-131.244-72.325-224.006-72.325
		S42.638,452.388,0,446.969v111.463h900"/>
	<path fill="#BBEFF2" d="M0,480.05c0,0,87.75-33.844,195.231-33.844c159.031,0,160.144,40.713,293.899,40.462
		c133.757-0.251,246.45-86.219,386.344-86.438c10.223-0.016,16.186,0.371,24.525,0.636c0.076-0.265,0,157.568,0,157.568H0v-78.387"
		/>
	<path fill="#BBEFF2" d="M452.85,558.438H900V448.619c-6.518,0.131-12.044,0.284-17.704,0.459
		c-203.463,6.294-330.231-2.799-429.45-14.419V558.44"/>
	<path fill="#A4F0F4" d="M-0.281,500.331c0,0,37.894,5.529,62.962,5.48c146.582-0.289,183.369-72.632,336.682-72.882
		c153.318-0.249,161.881,70.088,318.182,71.9c100.706,1.167,182.625-35.725,182.449-35.725v89.331h-900l-0.281-58.106"/>
	<path fill="#84DBEF" d="M0,558.438c0,0-0.475-32.787,0-32.983c5.395,0.131,57.856,20.429,194.45,20.429s370-36.86,513.412-36.86
		c143.413,0,158.169,36.86,192.138,36.86v12.556L0,558.438"/>
</g>
</svg>
